<svg width="54" height="62" viewBox="0 0 54 62" fill="none" xmlns="http://www.w3.org/2000/svg">
<path d="M51.9625 54.902L52.0469 55.2114L52.2956 55.4141C52.7239 55.7631 53 56.3027 53 56.8929V58.8214C53 59.8723 52.158 60.7143 51.1071 60.7143H11.5714C5.73532 60.7143 1 55.979 1 50.1429V11.5714C1 5.73532 5.73532 1 11.5714 1H51.1071C52.158 1 53 1.84202 53 2.89286V43.3929C53 43.9849 52.7227 44.5193 52.3043 44.8525L52.0485 45.0562L51.9625 45.3717C51.671 46.4406 51.5475 48.346 51.5475 50.1368C51.5475 51.9277 51.671 53.8331 51.9625 54.902ZM45.9723 55H47.0896L46.9662 53.8896C46.7453 51.9018 46.7453 48.3839 46.9662 46.3961L47.0896 45.2857H45.9723H11.5714C8.89772 45.2857 6.71429 47.4691 6.71429 50.1429C6.71429 52.8286 8.88566 55 11.5714 55H45.9723ZM16.1518 14.4286C15.2017 14.4286 14.4286 15.2017 14.4286 16.1518V18.5625C14.4286 19.5126 15.2017 20.2857 16.1518 20.2857H41.7054C42.6554 20.2857 43.4286 19.5126 43.4286 18.5625V16.1518C43.4286 15.2017 42.6554 14.4286 41.7054 14.4286H16.1518ZM16.1518 22.1429C15.2017 22.1429 14.4286 22.916 14.4286 23.8661V26.2768C14.4286 27.2268 15.2017 28 16.1518 28H41.7054C42.6554 28 43.4286 27.2268 43.4286 26.2768V23.8661C43.4286 22.916 42.6554 22.1429 41.7054 22.1429H16.1518Z" stroke="#8758FF" stroke-width="2"/>
</svg>
