<svg width="63" height="49" viewBox="0 0 63 49" fill="none" xmlns="http://www.w3.org/2000/svg">
<path d="M16.7929 25.5429L16.5 25.8358V26.25V31.5V32.5H17.5H56H57V31.5V19.25V18.8358L56.7071 18.5429L47.1353 8.97094L47.1352 8.97086C46.2321 8.06795 44.7679 8.06784 43.8648 8.97094L29.75 23.0858L26.1353 19.4709L26.1352 19.4709C25.2321 18.568 23.7679 18.5678 22.8648 19.4709L16.7929 25.5429ZM51.5 43V43.75C51.5 46.0972 49.5972 48 47.25 48H5.25C2.90275 48 1 46.0972 1 43.75V15.75C1 13.4028 2.90275 11.5 5.25 11.5H6V33.25C6 38.627 10.373 43 15.75 43H51.5ZM62 5.25V33.25C62 35.5972 60.0972 37.5 57.75 37.5H15.75C13.4028 37.5 11.5 35.5972 11.5 33.25V5.25C11.5 2.90275 13.4028 1 15.75 1H57.75C60.0972 1 62 2.90275 62 5.25ZM22.75 16.75C26.2018 16.75 29 13.9518 29 10.5C29 7.04818 26.2018 4.25 22.75 4.25C19.2982 4.25 16.5 7.04818 16.5 10.5C16.5 13.9518 19.2982 16.75 22.75 16.75Z" stroke="#8758FF" stroke-width="2"/>
</svg>
