<svg width="47" height="47" viewBox="0 0 47 47" fill="none" xmlns="http://www.w3.org/2000/svg">
<path d="M12.0454 37.9503C15.1901 40.4457 19.1713 41.9354 23.5 41.9354C33.6897 41.9354 41.9354 33.6881 41.9354 23.5C41.9354 13.3103 33.6881 5.06451 23.5 5.06451C18.6101 5.06451 14.1665 6.96589 10.8689 10.0675L10.1178 10.774L10.8469 11.5031L15.6563 16.3124C15.9815 16.6376 15.7511 17.1935 15.2914 17.1935H1.51613C1.23104 17.1935 1 16.9625 1 16.6774V2.90215C1 2.44242 1.55589 2.21204 1.88111 2.53717C1.88112 2.53718 1.88114 2.53719 1.88115 2.5372L6.5595 7.21556L7.25076 7.90682L7.95751 7.2314C11.9978 3.37021 17.471 1 23.5 1C35.9122 1 45.977 11.0506 46 23.4574C46.0229 35.8525 35.9113 45.9912 23.5163 45.9999C18.1612 46.0037 13.2448 44.1379 9.37971 41.0184C8.79585 40.5472 8.74788 39.6663 9.2845 39.1297L10.3521 38.062C10.8171 37.597 11.5488 37.5564 12.0454 37.9503ZM12.0454 37.9503L12.6602 37.1755L12.0454 37.9503C12.0454 37.9503 12.0454 37.9503 12.0454 37.9503ZM29.9986 29.1102L29.9985 29.1102L29.0678 30.307C29.0678 30.307 29.0677 30.307 29.0677 30.307C28.6357 30.8625 27.8352 30.9625 27.2797 30.5305C27.2797 30.5305 27.2797 30.5305 27.2796 30.5305L21.4677 26.0101V13.6451C21.4677 12.9414 22.0382 12.371 22.7419 12.371H24.258C24.9618 12.371 25.5322 12.9414 25.5322 13.6451V23.5331V24.0221L25.9183 24.3224L29.775 27.3222L29.7751 27.3222C30.3305 27.7542 30.4306 28.5547 29.9986 29.1102Z" stroke="#8758FF" stroke-width="2"/>
</svg>
