<svg width="65" height="58" viewBox="0 0 65 58" fill="none" xmlns="http://www.w3.org/2000/svg">
<path d="M40.7222 29.764L40.3492 30.047C39.3033 26.7072 36.1816 24.2778 32.5 24.2778H22.6667V21.6667C22.6667 20.2249 23.8361 19.0556 25.2778 19.0556H61.3889C62.8306 19.0556 64 20.2249 64 21.6667V43.3333C64 44.7751 62.8306 45.9444 61.3889 45.9444H40.7222V31.7778V29.764ZM57.7778 33.5H58.7778V32.5V25.2778V24.2778H57.7778H50.5556H49.5556V25.2778V32.5V33.5H50.5556H57.7778ZM1 41.0291C2.58824 42.2507 5.18006 44.2076 10.2462 47.7541C10.3895 47.8618 10.5547 47.99 10.7388 48.1328C11.4176 48.6596 12.3522 49.3847 13.3838 50.011C14.7031 50.8121 16.338 51.5556 18.0556 51.5556C19.7732 51.5556 21.408 50.8121 22.7273 50.011C23.7589 49.3847 24.6935 48.6596 25.3723 48.1328C25.5564 47.99 25.7217 47.8618 25.865 47.7541C30.9311 44.2075 33.5229 42.2507 35.1111 41.0291V54.1667C35.1111 55.6084 33.9417 56.7778 32.5 56.7778H3.61111C2.16939 56.7778 1 55.6084 1 54.1667V41.0291ZM3.61111 29.8889H32.5C33.9417 29.8889 35.1111 31.0583 35.1111 32.5V34.1684C34.462 34.6611 33.974 35.047 33.4373 35.4713C31.8955 36.6903 29.9516 38.2273 22.6331 43.5281C22.2685 43.6769 21.892 43.9144 21.5662 44.13C21.3664 44.2623 21.1905 44.3828 21.0151 44.503C20.7946 44.6542 20.5748 44.8049 20.3092 44.9775C19.3897 45.5752 18.6267 45.9444 18.0556 45.9444C17.493 45.9444 16.7275 45.5796 15.8304 44.9516C15.4068 44.655 14.9996 44.334 14.6149 44.0285C14.5902 44.0089 14.5655 43.9893 14.5407 43.9696C14.2036 43.7016 13.8613 43.4296 13.5717 43.2349C6.17604 37.8792 4.2221 36.3344 2.67378 35.1102C2.13705 34.6858 1.64905 34.3 1 33.8073V32.5C1 31.0583 2.16939 29.8889 3.61111 29.8889ZM25.2778 13.4444C20.7431 13.4444 17.0556 17.132 17.0556 21.6667V24.2778H8.22222V3.61111C8.22222 2.16939 9.39161 1 10.8333 1H46.9444C48.3862 1 49.5556 2.16939 49.5556 3.61111V13.4444H25.2778Z" stroke="#8758FF" stroke-width="2"/>
</svg>
