<svg width="47" height="47" viewBox="0 0 47 47" fill="none" xmlns="http://www.w3.org/2000/svg">
<path d="M43.1794 0.135882L43.48 1.08962C43.7701 0.998186 44.0777 0.976329 44.3778 1.02583C44.6779 1.07532 44.9621 1.19478 45.2075 1.37453C45.4529 1.55428 45.6525 1.78927 45.7901 2.06049C45.9278 2.33171 45.9997 2.63154 46 2.9357V35.2473C46 36.4312 45.2799 37.6255 43.8636 38.5695C42.4543 39.5089 40.4502 40.1223 38.1875 40.1223C35.9249 40.1223 33.9207 39.5087 32.5115 38.5692C31.0951 37.6251 30.375 36.4307 30.375 35.2473C30.375 34.0638 31.0951 32.8695 32.5115 31.9253C33.9202 30.9862 35.9233 30.3727 38.1848 30.3723C39.0959 30.3775 40.0032 30.489 40.8883 30.7046L42.125 31.0059V29.733V12.7864V11.4514L40.8438 11.8267L17.3438 18.7115L16.625 18.9221V19.6712V41.1223C16.625 42.3057 15.9049 43.5001 14.4885 44.4442C13.0793 45.3837 11.0751 45.9973 8.8125 45.9973C6.54987 45.9973 4.54575 45.3837 3.13646 44.4442C1.72008 43.5001 1 42.3057 1 41.1223C1 39.9388 1.72008 38.7445 3.13646 37.8003C4.54513 36.8612 6.54812 36.2478 8.80954 36.2473C9.72087 36.2526 10.6285 36.3639 11.5141 36.5789L12.75 36.8789V35.6071V11.6111C12.7502 11.1989 12.882 10.7975 13.126 10.4653C13.3685 10.1351 13.7093 9.89041 14.0995 9.76614L43.4626 1.09494L43.1794 0.135882Z" stroke="#8758FF" stroke-width="2"/>
</svg>
