<svg width="83" height="83" viewBox="0 0 83 83" fill="none" xmlns="http://www.w3.org/2000/svg">
<path d="M76.2139 55.0796C76.2114 49.9043 76.208 44.6678 76.2032 42.5H76.2188V41.5C76.2188 22.3554 60.6446 6.78125 41.5 6.78125C22.3554 6.78125 6.78125 22.3554 6.78125 41.5V44.0938C6.78125 44.9745 6.06826 45.6875 5.1875 45.6875H2.59375C1.71299 45.6875 1 44.9745 1 44.0938V41.5168C1.73458 19.7688 18.9483 1 41.5 1C64.0517 1 81.2654 19.7688 82 41.5168V68.3648C82 75.8953 75.8953 82 68.3648 82H38.9062C35.161 82 32.125 78.964 32.125 75.2188C32.125 71.4735 35.161 68.4375 38.9062 68.4375H44.0938C47.839 68.4375 50.875 71.4735 50.875 75.2188V76.2188H51.875H68.3648C72.7023 76.2188 76.2188 72.7023 76.2188 68.3648V68.3645L75.2188 68.3648C76.2188 68.3645 76.2188 68.3644 76.2188 68.3642V68.3633V68.3597L76.2187 68.3453L76.2187 68.2886L76.2187 68.0671L76.2184 67.2263L76.2175 64.2222C76.2167 61.7344 76.2155 58.4132 76.2139 55.0796ZM25.9375 29.5312C28.2497 29.5312 30.125 31.4066 30.125 33.7188V51.875C30.125 54.1872 28.2497 56.0625 25.9375 56.0625H23.3438C18.1655 56.0625 13.9688 51.8658 13.9688 46.6875V38.9062C13.9688 33.728 18.1655 29.5312 23.3438 29.5312H25.9375ZM69.0312 46.6875C69.0312 51.8658 64.8345 56.0625 59.6562 56.0625H57.0625C54.7503 56.0625 52.875 54.1872 52.875 51.875V33.7188C52.875 31.4066 54.7503 29.5312 57.0625 29.5312H59.6562C64.8345 29.5312 69.0312 33.728 69.0312 38.9062V46.6875Z" stroke="#8758FF" stroke-width="2"/>
</svg>
