<svg width="51" height="82" viewBox="0 0 51 82" fill="none" xmlns="http://www.w3.org/2000/svg">
<path d="M27.8343 25.1879L27.4038 26.4997H28.7845H47.1761C49.353 26.4997 50.7038 28.8655 49.612 30.7323L49.6097 30.7361L21.5601 79.1856C21.0417 80.0809 20.1007 80.5991 19.1105 80.5991C17.3097 80.5991 15.9471 78.9149 16.3702 77.1282C16.3702 77.1281 16.3702 77.1281 16.3702 77.128L23.7173 46.1301L24.009 44.8995H22.7442H3.82664C2.1222 44.8995 0.801335 43.3937 1.02487 41.6961C1.0249 41.6958 1.02493 41.6956 1.02497 41.6953L6.12458 3.44822C6.12462 3.44796 6.12465 3.44771 6.12469 3.44746C6.31315 2.04862 7.51412 1 8.92658 1H31.8763C33.7092 1 35.0649 2.74837 34.6136 4.53174L27.8343 25.1879Z" stroke="#8758FF" stroke-width="2"/>
</svg>
