<svg width="112" height="67" viewBox="0 0 112 67" fill="none" xmlns="http://www.w3.org/2000/svg">
<path d="M63.8125 43.2708C63.8125 44.5943 62.7401 45.6667 61.4167 45.6667H50.25C48.9265 45.6667 47.8542 44.5943 47.8542 43.2708V40.4792C47.8542 39.1557 48.9265 38.0833 50.25 38.0833H52.0417V30.6946C51.9324 30.688 51.8234 30.6739 51.7156 30.6523C51.407 30.5905 51.1136 30.4685 50.8522 30.2933C50.5908 30.118 50.3665 29.8929 50.1922 29.6309L48.6435 27.3098C48.4688 27.048 48.3475 26.7543 48.2863 26.4456C48.2252 26.1369 48.2255 25.8191 48.2873 25.5106C48.3491 25.202 48.4711 24.9086 48.6463 24.6472C48.8214 24.386 49.0462 24.1619 49.308 23.9876L63.8125 43.2708ZM63.8125 43.2708V40.4792C63.8125 39.1557 62.7401 38.0833 61.4167 38.0833H59.625V23.7292C59.625 22.4057 58.5526 21.3333 57.2292 21.3333H54.8598C54.8598 21.3333 54.8598 21.3333 54.8597 21.3333C53.8358 21.3333 52.8347 21.6364 51.9827 22.2044C51.9827 22.2044 51.9827 22.2045 51.9827 22.2045L49.3087 23.9871L63.8125 43.2708ZM103.292 48.4583H104.292V47.4583V19.5417V18.5417H103.292C97.6761 18.5417 93.125 13.9906 93.125 8.375V7.375H92.125H19.5417H18.5417V8.375C18.5417 13.9906 13.9906 18.5417 8.375 18.5417H7.375V19.5417V47.4583V48.4583H8.375C13.9906 48.4583 18.5417 53.0094 18.5417 58.625V59.625H19.5417H92.125H93.125V58.625C93.125 53.0094 97.6761 48.4583 103.292 48.4583ZM40.0833 33.5C40.0833 23.1089 47.2738 14.9583 55.8333 14.9583C64.3929 14.9583 71.5833 23.1089 71.5833 33.5C71.5833 43.8927 64.3896 52.0417 55.8333 52.0417C47.2738 52.0417 40.0833 43.8895 40.0833 33.5ZM5.58333 1H106.083C108.614 1 110.667 3.05257 110.667 5.58333V61.4167C110.667 63.9474 108.614 66 106.083 66H5.58333C3.05257 66 1 63.9474 1 61.4167V5.58333C1 3.05257 3.05257 1 5.58333 1Z" stroke="#8758FF" stroke-width="2"/>
</svg>
