<svg width="59" height="62" viewBox="0 0 59 62" fill="none" xmlns="http://www.w3.org/2000/svg">
<path d="M55.6013 34.2079L55.405 34.5403L55.483 34.9185C56 37.4235 55.579 39.8369 54.4917 41.873L54.3424 42.1526L54.3813 42.4671C54.7072 45.0953 53.9351 47.8346 52.4636 49.8703L52.2795 50.1249L52.2741 50.4391C52.2199 53.6174 51.2089 56.2152 49.2207 58.0278C47.2231 59.8489 44.1047 61 39.5977 61C39.1742 61 38.7205 60.9997 38.263 60.9994C37.8056 60.9991 37.3445 60.9988 36.907 60.9988C30.8327 60.9988 26.9185 59.852 23.8513 58.6908C23.2123 58.4489 22.5722 58.1904 21.9477 57.9383C21.1248 57.606 20.3289 57.2846 19.5978 57.0263C18.2477 56.5492 16.8938 56.1962 15.3987 56.1626L14.6069 56.1447L14.4082 56.9114C14.0874 58.1494 12.9616 59.0625 11.625 59.0625H3.875C2.28719 59.0625 1 57.7753 1 56.1875V27.125C1 25.5372 2.28719 24.25 3.875 24.25H15.8342H16.2133L16.4972 23.9987C17.7497 22.8896 19.2106 20.9552 20.6329 19.0647C20.6696 19.0159 20.7063 18.9672 20.743 18.9184C22.1702 17.0212 23.5848 15.1409 24.8677 13.8579C25.2493 13.4764 25.4828 12.9223 25.6496 12.4335C25.8282 11.9103 25.9859 11.2833 26.1407 10.6276C26.1951 10.3972 26.2496 10.1614 26.3051 9.92133C26.5732 8.76183 26.8643 7.50223 27.2766 6.27268C27.7746 4.78769 28.416 3.45663 29.3074 2.50617C30.1678 1.58883 31.2819 1 32.8503 1C36.1567 1 38.747 1.91388 40.5166 3.73281C42.2897 5.55531 43.3869 8.43832 43.3869 12.6821C43.3869 14.7628 42.944 16.4953 42.3817 17.9593L41.8599 19.3179H43.3152H47.7327C53.0352 19.3179 57.125 23.8722 57.125 28.6811C57.125 30.8069 56.5799 32.5509 55.6013 34.2079ZM36.2032 23.1304C36.3999 21.5921 37.0332 20.3348 37.7496 18.9191L37.7527 18.913C38.6096 17.2195 39.5744 15.3128 39.5744 12.6821C39.5744 12.65 39.5744 12.6176 39.5744 12.5848C39.5749 11.2106 39.5756 9.28165 38.7436 7.70267C38.2985 6.85798 37.6207 6.11507 36.6216 5.59458C35.6359 5.08111 34.393 4.8125 32.8503 4.8125H32.4361L32.1432 5.10539C31.3972 5.85135 30.9794 6.82614 30.6923 7.80216C30.4634 8.58003 30.2946 9.44826 30.13 10.2948C30.0897 10.5022 30.0496 10.7082 30.009 10.9113C29.5792 13.0597 29.0466 15.0704 27.5634 16.5536L27.5633 16.5537C26.7053 17.412 25.7652 18.6027 24.8118 19.8569C24.5172 20.2444 24.2209 20.6386 23.9229 21.035C23.2393 21.9444 22.5469 22.8656 21.8461 23.7449C20.8402 25.0072 19.8636 26.1229 18.9513 26.9164C18.0022 27.742 17.2974 28.0625 16.8223 28.0625H15.5H14.5V29.0625V51.6065V52.6065H15.5C18.3342 52.6065 21.001 53.5361 24.0707 54.6062C24.2935 54.6839 24.5185 54.7623 24.7459 54.8412C28.059 55.9906 31.7677 57.1863 36.2845 57.1863H40.8643C43.1434 57.1863 45.3125 56.6406 46.7697 55.0981C48.1466 53.6406 48.6996 51.4972 48.3725 48.6899C49.2968 47.9603 50.0011 46.8149 50.3608 45.5916C50.7387 44.3064 50.7752 42.8066 50.1933 41.4168C52.2595 39.025 52.2834 35.8461 51.121 33.6962C51.1318 33.6876 51.1425 33.679 51.1531 33.6703C51.5659 33.3339 51.9374 32.8841 52.2471 32.3847C52.8639 31.3904 53.319 30.0638 53.3125 28.7054C53.2992 25.9088 50.8822 23.1304 47.7327 23.1304H36.2032ZM7.75 56.2188C9.90738 56.2188 11.6562 54.4699 11.6562 52.3125C11.6562 50.1551 9.90738 48.4062 7.75 48.4062C5.59262 48.4062 3.84375 50.1551 3.84375 52.3125C3.84375 54.4699 5.59262 56.2188 7.75 56.2188Z" stroke="#8758FF" stroke-width="2"/>
</svg>
